<?xml version="1.0" encoding="UTF-8"?>
<svg id="Layer_1" xmlns="http://www.w3.org/2000/svg" version="1.1" viewBox="0 0 526.07 244.79">
  <!-- Generator: Adobe Illustrator 30.7.0, SVG Export Plug-In . SVG Version: 2.1.4 Build 63)  -->
  <defs>
    <style>
      .st0 {
        fill: #fff;
      }
    </style>
  </defs>
  <g>
    <path class="st0" d="M440.97,181.05c3.57-5.02,12.66-18.3,16.29-24.25.8-1.32,1.6-3.17,1.6-5.02,0-2.51-1.97-4.76-5.41-4.76-2.52,0-4.79,1.92-5.96,3.3-.49.53-1.23.53-1.72,0l-3.75-4.1c-.43-.4-.49-1.19-.06-1.72,0,0,4.98-6.47,12.29-6.47,8.79,0,13.95,6.01,13.95,13.34,0,3.5-.92,5.48-2.4,8.59-1.97,3.76-7.01,10.83-9.89,15.19h10.82c.62,0,1.17.6,1.17,1.25v5.95c0,.66-.55,1.25-1.17,1.25h-24.58c-.68,0-1.17-.6-1.17-1.25v-1.32Z"/>
    <path class="st0" d="M477.16,171.74c3.19,0,5.9,2.91,5.9,6.34s-2.7,6.21-5.9,6.21-5.78-2.84-5.78-6.21,2.64-6.34,5.78-6.34Z"/>
    <path class="st0" d="M503.95,136.73c12.29,0,22.12,10.64,22.12,23.85s-9.83,23.72-22.12,23.72-22.06-10.5-22.06-23.72,9.77-23.85,22.06-23.85ZM503.95,173.72c6.76,0,12.29-5.95,12.29-13.14s-5.53-13.28-12.29-13.28-12.23,6.01-12.23,13.28,5.53,13.14,12.23,13.14Z"/>
  </g>
  <g>
    <path class="st0" d="M252.3,215.61h-1.07c-.56,0-.97-.46-.97-.97v-4.53c0-.56.41-.97.97-.97h1.07v-4.69c0-7.13,4.43-11.1,10.34-11.1,2.65,0,5.35,1.12,6.21,1.94.31.25.41.82.21,1.17l-2.14,4.23c-.15.36-.76.56-1.17.36-.66-.36-1.63-.82-2.65-.82-2.14,0-3.01,1.73-3.01,4.23v4.69h4.69c.56,0,.97.41.97.97v4.53c0,.51-.41.97-.97.97h-4.69v12.94c0,.51-.46.97-.97.97h-5.86c-.51,0-.97-.46-.97-.97v-12.94Z"/>
    <path class="st0" d="M280.06,208.64c5.81,0,10.59,4.89,10.59,10.64s-4.79,10.75-10.59,10.75-10.59-4.89-10.59-10.75,4.79-10.64,10.59-10.64ZM280.06,223.46c2.24,0,4.02-1.89,4.02-4.18s-1.78-4.07-4.02-4.07-4.02,1.83-4.02,4.07,1.78,4.18,4.02,4.18Z"/>
    <path class="st0" d="M305.27,208.64c5.81,0,10.59,4.89,10.59,10.64s-4.79,10.75-10.59,10.75-10.59-4.89-10.59-10.75,4.79-10.64,10.59-10.64ZM305.27,223.46c2.24,0,4.02-1.89,4.02-4.18s-1.78-4.07-4.02-4.07-4.02,1.83-4.02,4.07,1.78,4.18,4.02,4.18Z"/>
    <path class="st0" d="M330.13,208.64c1.73,0,3.62.61,4.23.97v-14.77c0-.51.46-.97.97-.97h5.65c.51,0,.97.46.97.97v33.71c0,.51-.46.97-.97.97h-2.39c-.51,0-.87-.46-1.07-1.02l-.61-1.68s-2.34,3.21-6.82,3.21c-5.75,0-10.08-4.84-10.08-10.69,0-7.18,4.69-10.69,10.13-10.69ZM331.1,223.46c2.34,0,4.07-1.83,4.07-4.18s-1.73-4.07-4.07-4.07-4.12,1.78-4.12,4.07,1.78,4.18,4.12,4.18Z"/>
    <path class="st0" d="M371.29,208.64c3.36,0,5.45,1.32,5.45,1.32v-15.13c0-.51.46-.97.97-.97h1.58c.51,0,.97.46.97.97v33.71c0,.51-.46.97-.97.97h-1.07c-.46,0-.76-.36-.87-.81l-.3-1.38s-2.45,2.7-6.26,2.7c-5.19,0-9.27-4.89-9.27-10.75s3.67-10.64,9.78-10.64ZM371.13,226.82c3.67,0,5.55-3.36,5.55-3.36v-10.19s-2.14-1.22-4.94-1.22c-4.43,0-6.67,3.21-6.67,7.28s2.34,7.49,6.06,7.49Z"/>
    <path class="st0" d="M397.72,208.64c5.35,0,9.22,3.97,9.22,9.32,0,.36-.05,1.02-.1,1.38-.05.51-.46.87-.92.87h-14.67c.2,3.41,3.21,6.62,6.82,6.62,2.14,0,3.87-.81,5.04-1.53.71-.41,1.02-.66,1.43-.1.3.41.56.76.86,1.17.36.46.56.76-.2,1.32-1.22.97-3.97,2.34-7.49,2.34-6.16,0-9.98-4.84-9.98-10.69s3.82-10.69,9.98-10.69ZM403.42,217.34c-.15-2.95-2.6-5.6-5.7-5.6-3.41,0-6.06,2.44-6.42,5.6h12.12Z"/>
    <path class="st0" d="M414.23,194.84c0-.51.46-.97.97-.97h1.58c.51,0,.97.46.97.97v33.71c0,.51-.46.97-.97.97h-1.58c-.51,0-.97-.46-.97-.97v-33.71Z"/>
    <path class="st0" d="M425.99,197.33c0-1.37,1.07-2.44,2.39-2.44s2.45,1.07,2.45,2.44-1.07,2.39-2.45,2.39-2.39-1.07-2.39-2.39ZM426.71,210.11c0-.51.46-.97.97-.97h1.58c.51,0,.97.46.97.97v18.43c0,.51-.46.97-.97.97h-1.58c-.51,0-.97-.46-.97-.97v-18.43Z"/>
    <path class="st0" d="M436.33,210.32c-.3-.66,0-1.17.77-1.17h1.58c.46,0,.77.25.92.56l6.31,14.56h.05l6.72-14.56c.15-.31.46-.56.87-.56h1.32c.76,0,1.07.51.76,1.17l-8.71,19.2c-.1.25-.41.51-.87.51h-.25c-.46,0-.76-.26-.87-.51l-8.61-19.2Z"/>
    <path class="st0" d="M470.25,208.64c5.35,0,9.22,3.97,9.22,9.32,0,.36-.05,1.02-.1,1.38-.05.51-.46.87-.92.87h-14.67c.2,3.41,3.21,6.62,6.82,6.62,2.14,0,3.87-.81,5.04-1.53.71-.41,1.02-.66,1.43-.1.3.41.56.76.86,1.17.36.46.56.76-.2,1.32-1.22.97-3.97,2.34-7.49,2.34-6.16,0-9.98-4.84-9.98-10.69s3.82-10.69,9.98-10.69ZM475.96,217.34c-.15-2.95-2.6-5.6-5.7-5.6-3.41,0-6.06,2.44-6.42,5.6h12.12Z"/>
    <path class="st0" d="M486.71,210.11c0-.51.46-.97.97-.97h.97c.41,0,.76.25.86.71l.41,1.48s1.88-2.7,6.11-2.7c1.53,0,4.07.25,3.57,1.68l-.61,1.73c-.26.66-.71.66-1.22.46-.46-.2-1.22-.41-1.99-.41-3.87,0-5.55,2.85-5.55,2.85v13.6c0,.51-.46.97-.97.97h-1.58c-.51,0-.97-.46-.97-.97v-18.43Z"/>
    <path class="st0" d="M502.85,210.27c-.31-.66,0-1.12.76-1.12h2.24c.41,0,.71.25.86.56l7.54,15.58h.05l7.13-15.58c.15-.31.51-.56.86-.56h1.94c.76,0,1.12.51.76,1.17l-15.63,33.86c-.15.31-.51.61-.87.61h-1.88c-.76,0-1.17-.56-.82-1.27l6.52-14.05-9.47-19.2Z"/>
  </g>
  <g>
    <path class="st0" d="M159.74,74.71c0-1.6,1.28-3.04,3.04-3.04h38.56c19.68,0,35.83,16,35.83,35.35s-16.16,35.99-35.67,35.99h-16.8v37.59c0,1.6-1.44,3.04-3.04,3.04h-18.88c-1.76,0-3.04-1.44-3.04-3.04v-105.9ZM199.9,119.66c6.88,0,12.64-5.44,12.64-12.64,0-6.72-5.76-11.84-12.64-11.84h-15.2v24.48h15.2Z"/>
    <path class="st0" d="M248.44,74.71c0-1.6,1.28-3.04,3.04-3.04h66.23c1.76,0,3.04,1.44,3.04,3.04v17.44c0,1.6-1.28,3.04-3.04,3.04h-44.31v19.84h36.47c1.6,0,3.04,1.44,3.04,3.04v17.44c0,1.76-1.44,3.04-3.04,3.04h-36.47v21.6h44.31c1.76,0,3.04,1.44,3.04,3.04v17.44c0,1.6-1.28,3.04-3.04,3.04h-66.23c-1.76,0-3.04-1.44-3.04-3.04v-105.9Z"/>
    <path class="st0" d="M332.25,72.95c0-1.6,1.44-2.88,3.04-2.88h4l63.83,61.43h.16v-56.79c0-1.6,1.28-3.04,3.04-3.04h19.2c1.6,0,3.04,1.44,3.04,3.04v107.66c0,1.6-1.44,2.88-3.04,2.88h-2.56c-.48,0-1.76-.48-2.08-.8l-63.19-63.51h-.16v59.67c0,1.6-1.28,3.04-3.04,3.04h-19.04c-1.6,0-3.04-1.44-3.04-3.04l-.16-107.66Z"/>
    <g>
      <path class="st0" d="M90.9,70.07c-5.87,0-11.51.87-16.82,2.49v-36.43C74.07,16.38,57.57,0,37.17,0S0,16.38,0,36.12v53.67c0,1.3,1.17,2.47,2.47,2.47h15.99c1.43,0,2.47-1.17,2.47-2.47v-52.63c0-9.1,6.89-16.38,16.24-16.38s15.98,7.28,15.98,16.38v47.02c-12.09,10.57-19.69,26.17-19.69,43.64,0,31.99,25.44,57.43,57.43,57.43s57.59-25.44,57.59-57.43-25.6-57.75-57.59-57.75ZM90.9,159.65c-17.44,0-31.84-14.4-31.84-31.83s14.4-32.16,31.84-32.16,31.99,14.56,31.99,32.16-14.4,31.83-31.99,31.83Z"/>
      <path class="st0" d="M91.74,113.99c-5.3-.44-9.73,3.73-9.73,8.93,0,1.2.24,2.35.67,3.39.15.37.35.71.57,1.05.44.68.7,1.5.7,2.38,0,.46-.07.91-.21,1.33h0c-.31.86-.48,1.8-.45,2.78.09,4.04,3.36,7.36,7.39,7.51,4.38.16,7.98-3.34,7.98-7.68,0-.78-.12-1.54-.34-2.25-.05-.13-.1-.27-.14-.41,0,0,0-.01,0-.02h0c-.1-.37-.16-.76-.16-1.16,0-.82.23-1.59.62-2.24h0c.92-1.5,1.39-3.29,1.28-5.2-.26-4.48-3.71-8.03-8.18-8.4Z"/>
    </g>
  </g>
</svg>